<?xml version="1.0" encoding="utf-8"?>
<svg width="746" height="747" viewBox="0 0 746 747" fill="none" xmlns="http://www.w3.org/2000/svg">
  <path d="M 710.016 338.566 L 681.203 372.977 L 710.08 407.334 L 674.93 435.241 L 696.3 474.708 L 656.252 494.968 L 669.24 537.929 L 625.934 549.713 L 630.007 594.408 L 585.216 597.233 L 580.209 641.834 L 535.765 635.585 L 521.883 678.265 L 479.607 663.197 L 457.417 702.209 L 419.04 678.939 L 389.452 712.686 L 356.544 682.167 L 320.768 709.267 L 294.677 672.749 L 254.179 692.092 L 235.973 651.07 L 192.41 661.865 L 182.835 618.017 L 137.99 619.822 L 137.437 574.944 L 93.147 567.685 L 101.64 523.615 L 59.717 507.589 L 76.907 466.13 L 39.069 441.993 L 64.253 404.844 L 32.048 373.584 L 64.194 342.264 L 38.941 305.162 L 76.734 280.954 L 59.467 239.528 L 101.359 223.423 L 92.784 179.369 L 137.06 172.027 L 137.529 127.149 L 182.377 128.87 L 191.87 85.004 L 235.454 95.718 L 253.583 54.661 L 294.117 73.929 L 320.14 37.362 L 355.966 64.395 L 388.817 33.815 L 418.468 67.506 L 456.802 44.165 L 479.064 83.135 L 521.312 67.988 L 535.274 110.642 L 579.706 104.309 L 584.796 148.901 L 629.593 151.642 L 625.603 196.345 L 668.931 208.048 L 656.024 251.033 L 696.11 271.218 L 674.814 310.725 Z M 132.983 485.323 C 194.457 617.837 351.716 675.426 484.231 613.951 C 616.745 552.477 674.334 395.218 612.859 262.703 C 551.385 130.189 394.126 72.6 261.611 134.075 C 129.097 195.549 71.508 352.808 132.983 485.323 Z" fill="#2F53B6"/>
  <path d="M 451.2 367.308 C 454.917 409.948 423.363 447.528 380.722 451.244 C 338.082 454.961 300.502 423.407 296.786 380.766 C 293.069 338.126 324.623 300.546 367.264 296.83 C 409.904 293.113 447.484 324.667 451.2 367.308 Z M 369.434 321.735 C 340.549 324.253 319.174 349.71 321.691 378.595 C 324.209 407.481 349.666 428.856 378.552 426.339 C 407.437 423.821 428.812 398.364 426.295 369.478 C 423.777 340.593 398.32 319.218 369.434 321.735 Z" fill="#2F53B6"/>
  <rect x="337.564" y="38.127" width="24" height="214.034" transform="matrix(0.996223, -0.08683, 0.08683, 0.996223, -2.035637, 90.014755)" fill="#2F53B6" style=""/>
  <rect x="98.658" y="155.72" width="24" height="210.614" transform="matrix(-0.086831, -0.996223, 0.996223, -0.086831, 294.182159, 491.596252)" fill="#2F53B6" style=""/>
  <rect x="98.658" y="156.768" width="24" height="212.032" transform="matrix(-0.086831, -0.996223, 0.996223, -0.086831, -49.308918, 523.219543)" fill="#2F53B6" style=""/>
  <rect x="337.564" y="36.687" width="24" height="205.948" transform="matrix(0.996223, -0.08683, 0.08683, 0.996223, 28.835175, 436.599396)" fill="#2F53B6" style=""/>
</svg>