<svg width="35" height="32" viewBox="0 0 35 32" fill="none" xmlns="http://www.w3.org/2000/svg">
<path fill-rule="evenodd" clip-rule="evenodd" d="M17.5 0.200012C26.9293 0.200012 34.6 6.23271 34.6 13.6469C34.6 21.0611 26.9293 27.0938 17.5 27.0938C16.9492 27.0938 16.3795 27.0695 15.7648 27.0191C10.5097 31.0493 6.23472 31.5794 6.05382 31.6001C6.03672 31.6019 6.01872 31.6028 6.00252 31.6028C5.84503 31.6028 5.69742 31.52 5.61552 31.3823C5.52552 31.2302 5.53272 31.0385 5.63442 30.8936C5.65332 30.8675 7.44792 28.3106 9.12552 25.3667C3.73002 22.9835 0.400024 18.5312 0.400024 13.6469C0.400024 6.23271 8.07072 0.200012 17.5 0.200012ZM17.5 26.1938C26.4325 26.1938 33.7 20.5652 33.7 13.6469C33.7 6.72861 26.4325 1.10001 17.5 1.10001C8.56752 1.10001 1.30002 6.72861 1.30002 13.6469C1.30002 18.299 4.60842 22.547 9.93552 24.734C10.0543 24.7826 10.147 24.8807 10.1893 25.0013C10.2316 25.1228 10.2199 25.2569 10.1569 25.3694C8.99682 27.4493 7.73502 29.3924 7.00062 30.4886C8.57562 30.0863 11.7535 28.9946 15.3526 26.201C15.4426 26.1317 15.5578 26.0984 15.6685 26.1083C16.3246 26.1659 16.9231 26.1938 17.5 26.1938Z" fill="#091e24"/>
</svg>
