<svg width="33" height="31" viewBox="0 0 33 31" fill="none" xmlns="http://www.w3.org/2000/svg">
<path fill-rule="evenodd" clip-rule="evenodd" d="M16.4983 0.401756C16.1799 0.401756 15.8632 0.510051 15.6036 0.726952L0.46176 13.3779C0.27096 13.5381 0.244452 13.8217 0.403752 14.0125C0.564852 14.2033 0.847523 14.2289 1.03832 14.0687L3.00004 12.4305V27.4C3.00004 28.8913 4.20874 30.1 5.70004 30.1H27.3C28.7913 30.1 30 28.8913 30 27.4V12.4305L31.9618 14.0705C32.0455 14.1407 32.1483 14.1742 32.25 14.1742C32.3787 14.1742 32.5072 14.1205 32.5963 14.0143C32.7556 13.8235 32.7291 13.539 32.5383 13.3797L30 11.2598V4.9C30 4.4032 29.5968 4 29.1 4H28.2C27.7032 4 27.3 4.4032 27.3 4.9V9.00273L17.3948 0.726952C17.1351 0.510051 16.8167 0.401756 16.4983 0.401756ZM16.4983 1.30351C16.6137 1.30351 16.7294 1.34254 16.8235 1.42129L29.1 11.6799V27.4C29.1 28.3945 28.2945 29.2 27.3 29.2H21V19.0012C21 18.1723 20.3286 17.5 19.5006 17.5H13.5012C12.6723 17.5 12 18.1723 12 19.0012V29.2H5.70004C4.70554 29.2 3.90004 28.3945 3.90004 27.4V11.6781L16.1748 1.42129C16.2689 1.34254 16.3829 1.30351 16.4983 1.30351Z" fill="#091e24"/>
</svg>
