<svg width="31" height="31" viewBox="0 0 31 31" fill="none" xmlns="http://www.w3.org/2000/svg">
<path fill-rule="evenodd" clip-rule="evenodd" d="M15.5 0.199997C7.04985 0.199997 0.199951 7.0499 0.199951 15.5C0.199951 23.9501 7.04985 30.8 15.5 30.8C23.9501 30.8 30.8 23.9501 30.8 15.5C30.8 7.0499 23.9501 0.199997 15.5 0.199997ZM15.5 1.1C23.4533 1.1 29.9 7.5467 29.9 15.5C29.9 23.4533 23.4533 29.9 15.5 29.9C7.54665 29.9 1.09995 23.4533 1.09995 15.5C1.09995 7.5467 7.54665 1.1 15.5 1.1ZM15.5 8.3C15.0032 8.3 14.6 8.7032 14.6 9.2C14.6 9.6968 15.0032 10.1 15.5 10.1C15.9967 10.1 16.4 9.6968 16.4 9.2C16.4 8.7032 15.9967 8.3 15.5 8.3ZM15.5 12.8C15.2516 12.8 15.05 13.0016 15.05 13.25V24.05C15.05 24.2984 15.2516 24.5 15.5 24.5C15.7484 24.5 15.95 24.2984 15.95 24.05V13.25C15.95 13.0016 15.7484 12.8 15.5 12.8Z" fill="#091E24"/>
</svg>
