<?xml version="1.0" encoding="utf-8"?>
<svg width="24" height="24" viewBox="0 0 24 24" fill="none" xmlns="http://www.w3.org/2000/svg">
  <g clip-path="url(#clip0_82_2)" style="" transform="matrix(1.132702, 0, 0, 1.132702, -1.440759, -1.554502)">
    <path d="M12 2C17.523 2 22 6.477 22 12C22 17.523 17.523 22 12 22C6.477 22 2 17.523 2 12C2 6.477 6.477 2 12 2ZM14 13.4L12.436 14.651C12.3811 14.6949 12.3361 14.75 12.3039 14.8125C12.2717 14.875 12.2531 14.9436 12.2492 15.0138C12.2453 15.084 12.2563 15.1543 12.2814 15.22C12.3066 15.2856 12.3453 15.3453 12.395 15.395L13.634 16.634C13.8739 16.8742 14.0487 17.1715 14.142 17.498L14.317 18.111C14.3896 18.3682 14.5185 18.606 14.6944 18.8072C14.8703 19.0083 15.0888 19.1678 15.334 19.274C16.2906 18.8345 17.1513 18.211 17.867 17.439L17.633 15.562C17.5921 15.2354 17.4711 14.924 17.281 14.6554C17.0909 14.3868 16.8374 14.1692 16.543 14.022L15.073 13.286C14.902 13.2004 14.71 13.1657 14.5198 13.1859C14.3296 13.2061 14.1492 13.2804 14 13.4ZM12 4C10.776 3.99896 9.56823 4.27922 8.46981 4.81916C7.37139 5.35909 6.41175 6.14425 5.665 7.114L5.5 7.335V9.02C5.49987 9.6305 5.68601 10.2265 6.03355 10.7284C6.38109 11.2304 6.87349 11.6143 7.445 11.829L7.623 11.889L8.913 12.284C10.286 12.704 11.623 11.587 11.49 10.188L11.471 10.043L11.296 8.994C11.2573 8.76163 11.3019 8.52307 11.4219 8.32037C11.542 8.11767 11.7297 7.96384 11.952 7.886L12.06 7.856L12.672 7.716C13.0192 7.63663 13.3471 7.48851 13.6361 7.28038C13.9252 7.07225 14.1696 6.80833 14.355 6.50419C14.5404 6.20005 14.663 5.86185 14.7155 5.50955C14.7681 5.15726 14.7496 4.79801 14.661 4.453C13.8061 4.15212 12.9063 3.99894 12 4Z" fill="#eff8fb"/>
  </g>
  <defs>
    <clipPath id="clip0_82_2">
      <rect width="24" height="24" fill="white"/>
    </clipPath>
  </defs>
</svg>