<svg width="33" height="29" viewBox="0 0 33 29" fill="none" xmlns="http://www.w3.org/2000/svg">
<path fill-rule="evenodd" clip-rule="evenodd" d="M13.8 0.199997C12.3087 0.199997 11.1 1.4087 11.1 2.9H3.00005C1.50875 2.9 0.300049 4.1087 0.300049 5.6V25.4C0.300049 26.8913 1.50875 28.1 3.00005 28.1H30C31.4913 28.1 32.7 26.8913 32.7 25.4V5.6C32.7 4.1087 31.4913 2.9 30 2.9H21.9C21.9 1.4087 20.6913 0.199997 19.2 0.199997H13.8ZM13.8 1.1H19.2C20.1945 1.1 21 1.9055 21 2.9H12C12 1.9055 12.8055 1.1 13.8 1.1ZM3.00005 3.8H30C30.9945 3.8 31.8 4.6055 31.8 5.6V13.1568C31.4047 13.2343 24.3505 14.6035 16.5 14.6035C8.64983 14.6035 1.59502 13.2344 1.20005 13.1568V5.6C1.20005 4.6055 2.00555 3.8 3.00005 3.8ZM1.20005 14.1025C2.69141 14.3806 7.61456 15.2232 13.8 15.4437V16.1012C13.8 16.7636 14.3373 17.3 15.0006 17.3H18.0012C18.6636 17.3 19.2 16.7636 19.2 16.1012V15.4437C25.3855 15.2232 30.3087 14.3806 31.8 14.1025V25.4C31.8 26.3945 30.9945 27.2 30 27.2H3.00005C2.00555 27.2 1.20005 26.3945 1.20005 25.4V14.1025Z" fill="#091e24"/>
</svg>
