<svg width="31" height="27" viewBox="0 0 31 27" fill="none" xmlns="http://www.w3.org/2000/svg">
<path fill-rule="evenodd" clip-rule="evenodd" d="M28.4482 11.7H7.86428C6.87428 11.7 6.01118 12.3345 5.71598 13.2786L2.09438 24.8697C2.43278 25.0749 2.82608 25.2 3.24998 25.2H24.4108C25.4008 25.2 26.2639 24.5655 26.5591 23.6214L29.7361 13.4532C29.8666 13.0383 29.7919 12.6 29.5354 12.2508C29.278 11.9007 28.882 11.7 28.4482 11.7ZM25.75 4.49999H12.25C11.5723 4.49999 10.9009 4.27589 10.36 3.86999L8.19998 2.24999C7.81298 1.96019 7.33418 1.79999 6.84998 1.79999H3.24998C2.00978 1.79999 0.999976 2.80979 0.999976 4.04999V22.95C0.999976 23.4027 1.13678 23.8221 1.36718 24.1758L4.85558 13.0104C5.27048 11.6883 6.47828 10.8 7.86428 10.8H28V6.74999C28 5.50979 26.9902 4.49999 25.75 4.49999ZM25.75 3.59999C27.487 3.59999 28.9 5.01299 28.9 6.74999V10.8522C29.4418 10.962 29.9242 11.259 30.2608 11.7171C30.6892 12.2994 30.8107 13.0302 30.5956 13.7214L27.4186 23.8896C27.0046 25.2117 25.7959 26.1 24.4108 26.1H3.24998C1.51298 26.1 0.0999756 24.687 0.0999756 22.95V4.04999C0.0999756 2.31299 1.51298 0.899994 3.24998 0.899994H6.84998C7.52768 0.899994 8.19908 1.12409 8.73998 1.52999L10.9 3.14999C11.2861 3.43979 11.7658 3.59999 12.25 3.59999H25.75Z" fill="#091e24"/>
</svg>
