<?xml version="1.0" encoding="utf-8"?>
<svg width="26" height="26" viewBox="0 0 26 26" fill="none" xmlns="http://www.w3.org/2000/svg">
  <g clip-path="url(#clip0_11_88)">
    <path fill-rule="evenodd" clip-rule="evenodd" d="M7.19763 0.762085C1.22931 0.762085 0.762085 1.22931 0.762085 7.19763V19.3266C0.762085 25.2949 1.22931 25.7621 7.19763 25.7621H19.3266C25.2949 25.7621 25.7621 25.2949 25.7621 19.3266V7.2367C25.7621 1.2317 25.2926 0.762085 19.2874 0.762085H7.19763ZM7.32622 4.82784C6.30783 4.82784 5.48213 5.65115 5.48213 6.66867C5.48213 7.68617 6.30703 8.51273 7.32622 8.51273C8.34203 8.51273 9.16704 7.68617 9.16704 6.66867C9.16704 5.65283 8.34203 4.82784 7.32622 4.82784ZM16.9698 9.7139C15.4323 9.7139 14.4023 10.5586 13.9799 11.3578H13.9375V9.96782H10.9053V20.1371H14.0645V15.1062C14.0645 13.7803 14.3157 12.4939 15.9607 12.4939C17.5814 12.4939 17.6046 14.0108 17.6046 15.1908V20.1371H20.7621V14.5593C20.7621 11.8209 20.1698 9.7139 16.9698 9.7139ZM5.74418 9.96782V20.1371H8.90498V9.96782H5.74418Z" fill="#eff8fb"/>
  </g>
  <defs>
    <clipPath id="clip0_11_88">
      <rect width="25" height="25" fill="white" transform="translate(0.762085 0.762085)"/>
    </clipPath>
  </defs>
</svg>